<svg xmlns="http://www.w3.org/2000/svg" width="32" height="32"><g font-family="sans-serif" font-size="45.121" font-weight="400" letter-spacing="0" word-spacing="0" style="line-height:125%" color="#000"><path fill="none" stroke="#000" stroke-linejoin="round" style="isolation:auto;mix-blend-mode:normal" d="m13.596 1045.197-2.693 4.665-.733-2.732-2.732.732 2.372-4.107m8.489 1.473 2.675 4.634.732-2.732 2.733.732-2.414-4.18" overflow="visible" transform="translate(0 -1020.362)"/><path fill="none" stroke="#000" stroke-linecap="round" stroke-linejoin="round" style="isolation:auto;mix-blend-mode:normal" d="M24.439 1034.362a8.5 8.5 0 0 1-8.5 8.5 8.5 8.5 0 0 1-8.5-8.5 8.5 8.5 0 0 1 8.5-8.5 8.5 8.5 0 0 1 8.5 8.5z" overflow="visible" transform="translate(0 -1020.362)"/><path fill="#f8b84e" d="M22.938 1034.362a7 7 0 0 1-7 7 7 7 0 0 1-7-7 7 7 0 0 1 7-7 7 7 0 0 1 7 7z" overflow="visible" style="isolation:auto;mix-blend-mode:normal" transform="translate(0 -1020.362)"/><path fill="#25b39e" d="M13.905 1022.364c-.297.053-1.341 1.572-1.625 1.676-.283.104-2.049-.381-2.31-.229-.262.153-.728 1.941-.96 2.137-.23.196-2.055.348-2.25.582-.193.234-.026 2.076-.177 2.34-.151.264-1.815 1.04-1.918 1.326-.103.287.677 1.958.625 2.258-.052.3-1.352 1.603-1.352 1.908 0 .305 1.3 1.608 1.352 1.908.052.3-.728 1.972-.625 2.258.103.287 1.767 1.062 1.918 1.326.151.265-.016 2.107.178 2.34.194.234 2.018.386 2.25.582.231.196.697 1.985.959 2.137.261.153 2.027-.333 2.31-.228.284.104 1.328 1.622 1.625 1.675.298.053 1.792-1.013 2.094-1.013.302 0 1.798 1.066 2.096 1.013.297-.053 1.341-1.571 1.625-1.675.283-.105 2.049.38 2.31.228.262-.152.728-1.94.96-2.137.23-.196 2.055-.348 2.25-.582.193-.233.026-2.075.177-2.34.151-.264 1.813-1.04 1.916-1.326.103-.286-.677-1.957-.625-2.258.052-.3 1.354-1.603 1.354-1.908 0-.305-1.302-1.608-1.354-1.908-.052-.3.728-1.971.625-2.258-.103-.287-1.765-1.062-1.916-1.326-.151-.264.016-2.106-.178-2.34-.194-.234-2.018-.386-2.25-.582-.231-.196-.697-1.984-.959-2.137-.261-.152-2.027.333-2.31.229-.284-.105-1.328-1.623-1.625-1.676-.298-.053-1.794 1.014-2.096 1.014-.302 0-1.796-1.067-2.094-1.014zm2.033 2.998c4.965 0 9 4.036 9 9 0 4.965-4.035 9-9 9-4.964 0-9-4.035-9-9 0-4.964 4.036-9 9-9z" overflow="visible" style="isolation:auto;mix-blend-mode:normal" transform="translate(0 -1020.362)"/><path fill="#25b39e" stroke="#000" stroke-dashoffset="2" stroke-linecap="round" stroke-linejoin="round" stroke-width="1.656" style="isolation:auto;mix-blend-mode:normal" d="M-110 1250.362c-.5.416-4.064-1.72-4.712-1.677-.65.043-3.899 2.633-4.45 2.287-.55-.347.381-4.397.14-5-.242-.604-3.71-2.895-3.55-3.525.16-.63 4.299-.997 4.798-1.413.5-.416 1.607-4.422 2.256-4.465.648-.043 2.276 3.78 2.826 4.127.55.346 4.702.161 4.943.765.242.604-2.891 3.333-3.05 3.963-.16.63 1.299 4.522.799 4.938z" overflow="visible" transform="matrix(.60314 .03632 -.03638 .60207 130.577 -730.586)"/></g></svg>