<svg xmlns="http://www.w3.org/2000/svg" width="64" height="64"><g color="#000" font-family="sans-serif" font-weight="400"><path fill="#1267d6" style="line-height:normal;text-indent:0;text-align:start;text-decoration-line:none;text-decoration-style:solid;text-decoration-color:#000;text-transform:none;block-progression:tb;white-space:normal;isolation:auto;mix-blend-mode:normal;solid-color:#000;solid-opacity:1" d="M-1088.645 3695.371a1 1 0 0 0-.727-.478 1 1 0 0 0-.01.01l-3.74-1.002a1 1 0 1 0-.518 1.932l1.531.41-4.054 2.34c-1.687-1.972-4.606-2.536-6.93-1.194-2.62 1.513-3.526 4.893-2.014 7.513 1.513 2.62 4.893 3.526 7.513 2.013 2.325-1.342 3.296-4.152 2.43-6.6l4.055-2.34-.41 1.532a1 1 0 1 0 1.932.517l1.002-3.74a1 1 0 0 0-.063-.902zm-8.664 5.02a3.485 3.485 0 0 1-1.281 4.782 3.485 3.485 0 0 1-4.781-1.281 3.485 3.485 0 0 1 1.28-4.781 3.485 3.485 0 0 1 4.782 1.28z" overflow="visible" transform="translate(2245.57 -7426.17) scale(2.01221)"/><path fill="#0a3d9d" style="line-height:normal;text-indent:0;text-align:start;text-decoration-line:none;text-decoration-style:solid;text-decoration-color:#000;text-transform:none;block-progression:tb;white-space:normal;isolation:auto;mix-blend-mode:normal;solid-color:#000;solid-opacity:1" d="M-1088.645 3695.371a.964.964 0 0 0-.36-.352.993.993 0 0 1-.08.393l-1.001 3.741a1 1 0 0 1-1.47.627c.01 1.175 1.687 1.374 1.971.234l1.002-3.74a1 1 0 0 0-.063-.903zm-2.595.361-2.899-.77a1.003 1.003 0 0 1-.259-.106c-.01.478.262.842.76.966l1.539.407zm.486.88-4.907 2.833c.865 2.446-.106 5.257-2.43 6.599-2.457 1.418-5.582.711-7.21-1.542.062.131.125.262.198.389 1.513 2.62 4.893 3.526 7.513 2.013 2.325-1.342 3.296-4.152 2.43-6.6l4.041-2.332zm-7.055 2.913a3.485 3.485 0 0 0-4.781-1.28 3.485 3.485 0 0 0-1.281 4.78c.086.149.19.278.292.409a3.473 3.473 0 0 1 1.489-4.324 3.473 3.473 0 0 1 4.489.873c-.062-.154-.122-.31-.208-.458z" overflow="visible" transform="translate(2245.57 -7426.17) scale(2.01221)"/><path fill="#ff143a" d="M-1105.998 2679.502c-3.026 0-5.5 2.474-5.5 5.5 0 2.684 1.948 4.928 4.5 5.402v3.098h-1.5a1 1 0 1 0 0 2h1.5v2a1 1 0 1 0 2 0v-2h1.5a1 1 0 1 0 0-2h-1.5v-3.098c2.552-.474 4.5-2.718 4.5-5.402 0-3.026-2.474-5.5-5.5-5.5zm0 2c1.945 0 3.5 1.555 3.5 3.5s-1.555 3.5-3.5 3.5a3.485 3.485 0 0 1-3.5-3.5c0-1.945 1.555-3.5 3.5-3.5z" overflow="visible" transform="translate(2245.57 -5372.987) scale(2.01221)" style="line-height:normal;text-indent:0;text-align:start;text-decoration-line:none;text-decoration-style:solid;text-decoration-color:#000;text-transform:none;block-progression:tb;white-space:normal;isolation:auto;mix-blend-mode:normal;solid-color:#000;solid-opacity:1"/><path fill="#d30045" d="M-1105.998 2679.502c-.169 0-.335.01-.5.025 2.793.255 5 2.618 5 5.475 0 2.684-1.948 4.928-4.5 5.402v3.098h1v-3.098c2.552-.474 4.5-2.718 4.5-5.402 0-3.026-2.474-5.5-5.5-5.5zm-1 2a3.485 3.485 0 0 0-3.5 3.5c0 1.945 1.555 3.5 3.5 3.5.171 0 .335-.025.5-.049a3.473 3.473 0 0 1-3-3.451 3.473 3.473 0 0 1 3-3.451c-.165-.023-.329-.05-.5-.05zm2.5 12a1 1 0 1 1 0 2h1a1 1 0 1 0 0-2h-1zm-1.5 2v2a1 1 0 0 1-.5.879 1 1 0 0 0 1.5-.879v-2h-1z" overflow="visible" transform="translate(2245.57 -5372.987) scale(2.01221)" style="line-height:normal;text-indent:0;text-align:start;text-decoration-line:none;text-decoration-style:solid;text-decoration-color:#000;text-transform:none;block-progression:tb;white-space:normal;isolation:auto;mix-blend-mode:normal;solid-color:#000;solid-opacity:1"/><path fill="#1267d6" d="M-1105.525 3703.85c.607.99 2.129.324 1.815-.794-.411-1.534.232-3.142 1.608-3.936-.425-.758-.414-.758-.977-1.732a5.508 5.508 0 0 0-2.563 6.186c.025.097.064.19.117.276z" overflow="visible" style="line-height:normal;text-indent:0;text-align:start;text-decoration-line:none;text-decoration-style:solid;text-decoration-color:#000;text-transform:none;block-progression:tb;white-space:normal;isolation:auto;mix-blend-mode:normal;solid-color:#000;solid-opacity:1" transform="translate(2245.57 -7426.17) scale(2.01221)"/><path fill="#0a3d9d" style="line-height:normal;text-indent:0;text-align:start;text-decoration-line:none;text-decoration-style:solid;text-decoration-color:#000;text-transform:none;block-progression:tb;white-space:normal;isolation:auto;mix-blend-mode:normal;solid-color:#000;solid-opacity:1" d="M-1101.639 3697.882a3.516 3.516 0 0 0-.95.363 3.485 3.485 0 0 0-1.282 4.781c.059.101.13.188.2.278a.909.909 0 0 0-.04-.248c-.013-.05-.016-.1-.027-.149-.018-.079-.028-.157-.04-.236a3.257 3.257 0 0 1-.038-.309c-.01-.12-.01-.238 0-.357 0-.064.01-.127.012-.19a3.42 3.42 0 0 1 .062-.416l.027-.113a3.453 3.453 0 0 1 1.629-2.176c.031-.018.064-.053.096-.07a.963.963 0 0 0 .352-1.154z" overflow="visible" transform="translate(2245.57 -7426.17) scale(2.01221)"/></g></svg>